[quote][img]http://hddb.net/ecs_covers/monsters-vs-aliens-blu-ray-640806-large.jpg[/img]
[img]http://img808.imageshack.us/img808/8581/646238we5inyn.png[/img]
General
Complete name                    : Monsters vs Aliens Hindi
Format                           : Matroska
File size                        : 616 MiB
Duration                         : 1h 30mn
Overall bit rate                 : 952 Kbps


Video
ID                               : 1
Format                           : AVC
Format/Info                      : Advanced Video Codec
Format profile                   : High@L3.1
Format settings, CABAC           : Yes
Format settings, ReFrames        : 5 frames
Muxing mode                      : Header stripping
Codec ID                         : V_MPEG4/ISO/AVC
Duration                         : 1h 30mn
Bit rate                         : 851 Kbps
Width                            : 1 280 pixels
Height                           : 544 pixels
Display aspect ratio             : 2.35:1
Frame rate                       : 25.000 fps
Original frame rate              : 23.976 fps
Color space                      : YUV
Chroma subsampling               : 4:2:0
Bit depth                        : 8 bits
Scan type                        : Progressive
Bits/(Pixel*Frame)               : 0.049
Stream size                      : 562 MiB (91%)


Audio
ID                               : 2
Format                           : MPEG Audio
Format version                   : Version 2
Format profile                   : Layer 3
Mode                             : Joint stereo
Mode extension                   : MS Stereo
Muxing mode                      : Header stripping
Codec ID                         : A_MPEG/L3
Codec ID/Hint                    : MP3
Duration                         : 1h 30mn
Bit rate mode                    : Constant
Bit rate                         : 64.0 Kbps
Channel(s)                       : 2 channels
Sampling rate                    : 22.05 KHz
Stream size                      : 41.4 MiB (7%)
Writing library                  : LAME3.98.2
Language                         : Hindi

[img]http://img839.imageshack.us/img839/3343/25ic0hd1.png[/img]

When a meteorite from outer space hits a young California woman named Susan Murphy and turns her into a giant monster, she is taken to a secret government compound where she meets a ragtag group of monsters also rounded up over the years. As a last resort, under the guidance of General W.R. Monger, on a desperate order from The President, the motley crew of Monsters is called into action to combat the aliens and save the world from imminent destruction!

[img]http://img526.imageshack.us/img526/7057/imdb3.png[/img]

[url]http://www.imdb.com/title/tt0892782/[/url]


[img]http://img233.imageshack.us/img233/4783/9k1gty1.png[/img]

Directors: Rob Letterman, Conrad Vernon
 Writers: Maya Forbes (screenplay), Wallace Wolodarsky (screenplay),  and 5 more credits » 
Stars: Reese Witherspoon, Rainn Wilson and Stephen Colbert

[img]http://cdn-images.hollywood.com/site/boxoffice_logo.jpg[/img]

Budget: $175,000,000 (estimated) 
Opening Weekend: $5,813,838 (Russia) (22 March 2009) (725 Screens) 
Gross: $198,351,526 (USA) (27 August 2009)

[img]http://img814.imageshack.us/img814/6269/screenpam.png[/img]
[img]http://leetleech.org/images/91415416297364683314.jpg[/img]
[img]http://leetleech.org/images/28652100158773672673.jpg[/img]
[img]http://leetleech.org/images/14828692880815026832.jpg[/img]
[img]http://leetleech.org/images/28986442568117391398.jpg[/img]

[img]http://img411.imageshack.us/img411/5893/phpthumbgeneratedthumbnw.gif[/img]

[img]http://www.spreadsheet123.com/images/facebook_logo.gif[/img]
[/quote]